<?xml version="1.0" encoding="UTF-8"?>
<svg version="1.1" xmlns="http://www.w3.org/2000/svg" width="512" height="512">
<path d="M0 0 C3.08552762 1.91302712 5.47906352 4.40518993 8 7 C8.80695313 7.80695312 9.61390625 8.61390625 10.4453125 9.4453125 C12.16016416 11.16016416 13.86974412 12.88030247 15.57421875 14.60546875 C17.59742273 16.60260891 19.64660236 18.47490684 21.8125 20.3125 C25.57134912 23.52238941 29.02742134 26.98790409 32.5 30.5 C35.89005327 33.92845659 39.25194058 37.32260785 42.9375 40.4375 C46.84269979 43.74572658 50.40280926 47.36513741 54 51 C59.34465194 56.41494868 59.34465194 56.41494868 65 61.5 C69.55937735 65.35188776 73.67246864 69.64812208 77.8671875 73.88671875 C80.82940843 76.86800977 83.78707598 79.78563316 87 82.5 C91.55937735 86.35188776 95.67246864 90.64812208 99.8671875 94.88671875 C102.82940843 97.86800977 105.78707598 100.78563316 109 103.5 C113.55937735 107.35188776 117.67246864 111.64812208 121.8671875 115.88671875 C124.82940843 118.86800977 127.78707598 121.78563316 131 124.5 C135.55937735 128.35188776 139.67246864 132.64812208 143.8671875 136.88671875 C146.82940843 139.86800977 149.78707598 142.78563316 153 145.5 C157.55937735 149.35188776 161.67246864 153.64812208 165.8671875 157.88671875 C168.82940843 160.86800977 171.78707598 163.78563316 175 166.5 C179.55937735 170.35188776 183.67246864 174.64812208 187.8671875 178.88671875 C190.82940843 181.86800977 193.78707598 184.78563316 197 187.5 C201.55937735 191.35188776 205.67246864 195.64812208 209.8671875 199.88671875 C212.82940843 202.86800977 215.78707598 205.78563316 219 208.5 C223.54939945 212.34345816 227.6558808 216.62817842 231.83862305 220.86035156 C235.63037597 224.68042036 239.49403745 228.33195422 243.64453125 231.765625 C245.99953408 233.91023853 246.05452729 235.37841121 246.51953125 238.60546875 C246.43147041 244.43457067 242.65256937 247.45393501 238.6875 251.3125 C237.95926025 252.05234131 237.23102051 252.79218262 236.48071289 253.55444336 C234.33903241 255.72256143 232.17337014 257.86371105 230 260 C228.91022486 261.08730679 227.82153789 262.17570631 226.734375 263.265625 C224.94204771 265.05795229 223.14434032 266.84492519 221.33984375 268.625 C218.5587822 271.44784711 215.97043627 274.39555039 213.4375 277.44140625 C211.07004587 280.00829266 209.24127785 280.95742156 205.8125 281.5625 C200.3562999 280.75748687 197.77373666 277.82553304 194 274 C192.33387588 272.33279096 190.66726629 270.66606682 189 269 C188.99780016 270.83435167 188.99780016 270.83435167 188.99555588 272.70576096 C188.9598689 301.7222757 188.9036495 330.73869926 188.82207905 359.75511901 C188.81206136 363.32502685 188.80221727 366.89493514 188.79248047 370.46484375 C188.78956841 371.53091936 188.78956841 371.53091936 188.78659752 372.61853185 C188.75555993 384.13270854 188.73859197 395.64686528 188.72680578 407.16107592 C188.7144033 418.97204183 188.68692243 430.78290293 188.64538693 442.59380269 C188.62248568 449.22937512 188.60709314 455.86483183 188.60811615 462.50045013 C188.60885899 468.74178121 188.59105963 474.98278046 188.55883217 481.22402573 C188.55028994 483.51861179 188.54861231 485.81323488 188.55419731 488.10783005 C188.56079364 491.23347293 188.54302105 494.35804643 188.51898193 497.48358154 C188.53062256 498.85517304 188.53062256 498.85517304 188.54249835 500.25447345 C188.45885528 506.37019601 188.45885528 506.37019601 186.15506363 509.53227615 C174.47724173 517.48555301 144.73872704 512.35781545 131.56542969 509.90209961 C128.69768727 509.31368753 125.8491661 508.67246499 123 508 C121.99743164 507.76394043 120.99486328 507.52788086 119.96191406 507.28466797 C75.91594299 496.5601309 37.07019676 474.20460268 2 446 C1.04609375 445.236875 0.0921875 444.47375 -0.890625 443.6875 C-1.93476563 442.8521875 -1.93476563 442.8521875 -3 442 C-6.62105508 443.01842174 -8.91724244 444.69150781 -11.64453125 447.17578125 C-44.76231211 476.61506629 -87.91107714 498.24983915 -131 508 C-131.90266602 508.20882813 -132.80533203 508.41765625 -133.73535156 508.6328125 C-146.84535486 511.55127748 -159.74181157 512.38384786 -173.125 512.4375 C-173.872052 512.44376404 -174.619104 512.45002808 -175.38879395 512.45648193 C-177.53321222 512.46789282 -179.67600044 512.45551849 -181.8203125 512.43359375 C-183.06055176 512.42384521 -184.30079102 512.41409668 -185.57861328 512.40405273 C-189.33475552 511.96046665 -191.78552066 510.96513799 -195 509 C-196.73024374 505.53951252 -196.15416896 501.53386263 -196.15821838 497.72409058 C-196.16562535 496.26369911 -196.16562535 496.26369911 -196.17318195 494.77380478 C-196.18861681 491.49096931 -196.19693374 488.20815347 -196.20532227 484.92529297 C-196.21489609 482.58019842 -196.22490587 480.23510561 -196.23532104 477.89001465 C-196.26242993 471.50605027 -196.28340703 465.12207846 -196.30332303 458.73808813 C-196.32293674 452.74763209 -196.34709649 446.75719515 -196.37124526 440.76675607 C-196.41893653 428.89936713 -196.46219655 417.03196632 -196.50268555 405.16455078 C-196.54203267 393.63459346 -196.583457 382.1046467 -196.62768555 370.57470703 C-196.63040982 369.86432753 -196.63313409 369.15394803 -196.63594092 368.42204188 C-196.64962027 364.85837406 -196.66334056 361.29470639 -196.67708123 357.73103881 C-196.79107012 328.15404819 -196.89780057 298.57703373 -197 269 C-198.15628906 270.17369141 -198.15628906 270.17369141 -199.3359375 271.37109375 C-200.34882573 272.39336057 -201.36185384 273.41548881 -202.375 274.4375 C-202.88289063 274.95376953 -203.39078125 275.47003906 -203.9140625 276.00195312 C-207.04509682 279.15358635 -208.69957535 280.79193206 -213.125 281.5 C-221.25887263 280.45046805 -226.28693011 272.67772863 -231.44140625 266.80859375 C-234.39497887 263.56642777 -237.49596279 260.50854251 -240.625 257.4375 C-253.29866538 244.85543382 -253.29866538 244.85543382 -254.875 238.4375 C-253.04760143 231.25843418 -246.89964039 226.80398426 -241.43359375 222.1796875 C-238.15851371 219.24630923 -235.08997684 216.12623365 -232 213 C-227.85786212 208.81395253 -223.69730576 204.77694642 -219.1953125 200.9765625 C-215.3372382 197.50292265 -211.72958148 193.76830351 -208.09765625 190.06054688 C-207.52660156 189.48111328 -206.95554688 188.90167969 -206.3671875 188.3046875 C-205.86300293 187.78890137 -205.35881836 187.27311523 -204.83935547 186.74169922 C-203 185 -203 185 -199.92938232 183.15129089 C-197.75791724 181.32609217 -197.07279263 180.32667466 -196.44918251 177.52807236 C-196.24753847 174.28431881 -196.23883109 171.08742087 -196.29052734 167.83764648 C-196.28632278 166.60463806 -196.28211823 165.37162964 -196.27778625 164.10125732 C-196.27272258 161.42442425 -196.27845835 158.75020654 -196.30268478 156.07372856 C-196.34057444 151.84199974 -196.33491755 147.61100667 -196.32315063 143.37916565 C-196.30631639 135.16212067 -196.33438766 126.94552013 -196.36656952 118.72854614 C-196.40507 108.26575421 -196.42117471 97.80303451 -196.40136492 87.34018761 C-196.39483237 83.13364426 -196.40912838 78.92783688 -196.43981528 74.72140682 C-196.4587737 71.49193257 -196.45251945 68.26247828 -196.45068359 65.03295898 C-196.46514023 63.86765152 -196.47959686 62.70234406 -196.49449158 61.50172424 C-196.48924973 60.43485382 -196.48400787 59.3679834 -196.47860718 58.26878357 C-196.48271292 57.34242316 -196.48681866 56.41606276 -196.49104881 55.46163082 C-195.84906089 52.24334131 -194.4965241 51.05568081 -192 49 C-188.6153195 47.63868722 -185.08633565 47.86653983 -181.47485352 47.85473633 C-180.82881165 47.85137772 -180.18276978 47.8480191 -179.51715088 47.84455872 C-177.38771629 47.83508242 -175.25836059 47.83310737 -173.12890625 47.83203125 C-171.64444446 47.82881667 -170.15998298 47.82545245 -168.67552185 47.82194519 C-165.56614447 47.81596246 -162.45679484 47.81410444 -159.34741211 47.81469727 C-155.36838585 47.81479891 -151.38953793 47.80114044 -147.41055393 47.78392506 C-144.3453032 47.7727931 -141.28009546 47.77077841 -138.21482658 47.77130699 C-136.74805015 47.77012892 -135.28127254 47.76571685 -133.81451607 47.75797462 C-131.76106473 47.74814918 -129.70799889 47.75106247 -127.65454102 47.75708008 C-125.90392113 47.75494255 -125.90392113 47.75494255 -124.11793518 47.75276184 C-119.92713864 48.08507305 -117.05273812 48.82167815 -114.21948242 51.99291992 C-112.44870428 56.35942129 -112.52015629 60.44101292 -112.48828125 65.11328125 C-112.47033005 66.08283249 -112.45237885 67.05238373 -112.43388367 68.05131531 C-112.37983951 71.13833306 -112.34590353 74.2251967 -112.3125 77.3125 C-112.27932176 79.40952662 -112.24483163 81.50653293 -112.20898438 83.60351562 C-112.12411622 88.7355658 -112.05727663 93.86757072 -112 99 C-111.46632812 98.46109131 -110.93265625 97.92218262 -110.3828125 97.36694336 C-107.92460574 94.88773764 -105.46233634 92.41260401 -103 89.9375 C-102.16082031 89.08994141 -101.32164062 88.24238281 -100.45703125 87.36914062 C-96.05777962 82.95283763 -91.59674283 78.70614479 -86.8671875 74.64672852 C-83.76460554 71.91046867 -80.89256354 68.95473402 -78 66 C-73.85736252 61.80929394 -69.69060073 57.77309372 -65.1875 53.96875 C-62.00179249 51.10161324 -59.01415242 48.04568121 -56 45 C-51.85491669 40.81155808 -47.69083641 36.77329283 -43.1875 32.96875 C-39.35010488 29.51509439 -35.77424795 25.79291687 -32.14379883 22.12426758 C-28.51329339 18.47027955 -24.81599383 14.98499695 -20.87890625 11.66015625 C-17.72382397 8.87240164 -14.81748329 5.83678596 -11.8828125 2.8203125 C-8.40560453 -0.54146947 -4.65148715 -0.97318348 0 0 Z M-15.36328125 30.3359375 C-17.19954022 32.18241869 -19.0321385 34.03247104 -20.86401367 35.88330078 C-24.39235132 39.43478591 -27.98752212 42.79980317 -31.8125 46.03125 C-34.99820751 48.89838676 -37.98584758 51.95431879 -41 55 C-45.14508331 59.18844192 -49.30916359 63.22670717 -53.8125 67.03125 C-56.99820751 69.89838676 -59.98584758 72.95431879 -63 76 C-67.14508331 80.18844192 -71.30916359 84.22670717 -75.8125 88.03125 C-78.99820751 90.89838676 -81.98584758 93.95431879 -85 97 C-89.14046942 101.18377977 -93.29509563 105.22342106 -97.80078125 109.015625 C-101.70219627 112.53590711 -105.33916161 116.33758054 -108.99023438 120.11523438 C-116.51715569 127.79421471 -116.51715569 127.79421471 -121.16796875 128.1796875 C-123.12915656 127.8838023 -125.06687694 127.44366759 -127 127 C-129.28165474 123.57751788 -129.26729869 122.27281938 -129.31884766 118.2434082 C-129.33871735 117.06241043 -129.35858704 115.88141266 -129.37905884 114.66462708 C-129.39061005 113.38955795 -129.40216125 112.11448883 -129.4140625 110.80078125 C-129.43342865 109.49545944 -129.4527948 108.19013763 -129.4727478 106.84526062 C-129.52407634 103.37819478 -129.56369793 99.91109011 -129.60089111 96.44384766 C-129.64092641 92.90452503 -129.69191407 89.36536144 -129.7421875 85.82617188 C-129.8399908 78.88417483 -129.91949722 71.9423057 -130 65 C-146.17 65 -162.34 65 -179 65 C-178.99363525 68.62355469 -178.98727051 72.24710938 -178.98071289 75.98046875 C-178.96476368 87.95873204 -178.98684115 99.93664261 -179.02846622 111.91482544 C-179.05277463 119.176583 -179.064134 126.43792395 -179.04467773 133.69970703 C-179.02774648 140.03145934 -179.03544945 146.36262873 -179.07234758 152.69430447 C-179.09102524 156.0452488 -179.09395287 159.39438209 -179.07469368 162.74545288 C-179.05525034 166.4926795 -179.07934628 170.23730644 -179.11352539 173.984375 C-179.0977092 175.08705215 -179.08189301 176.18972931 -179.06559753 177.32582092 C-179.18278209 184.01191644 -180.33356597 187.56654657 -185.14018917 192.29972839 C-186.06079553 193.14136284 -186.06079553 193.14136284 -187 194 C-188.23294809 195.26720912 -189.4614538 196.53877019 -190.68359375 197.81640625 C-191.93162463 199.06837362 -193.18298498 200.31703002 -194.4375 201.5625 C-195.09999756 202.22306396 -195.76249512 202.88362793 -196.44506836 203.56420898 C-200.13131083 207.21780175 -203.87765397 210.72187478 -207.84765625 214.06640625 C-211.67013728 217.50039556 -215.23209228 221.20483223 -218.83666992 224.86499023 C-222.62081538 228.68822704 -226.48206466 232.27272787 -230.7421875 235.5703125 C-232.44035694 237.18315797 -232.44035694 237.18315797 -232 241 C-230.49669701 242.95196755 -230.49669701 242.95196755 -228.4375 244.75 C-224.91684968 248.08962398 -221.69297589 251.54955555 -218.54296875 255.23828125 C-217.08919634 256.89815811 -215.57858414 258.45933981 -214 260 C-210.97022571 258.64768813 -208.91527387 257.14519457 -206.609375 254.76953125 C-205.98667725 254.13523193 -205.36397949 253.50093262 -204.72241211 252.84741211 C-204.07151611 252.17589111 -203.42062012 251.50437012 -202.75 250.8125 C-201.39381303 249.43303917 -200.03576422 248.05540608 -198.67578125 246.6796875 C-198.06903564 246.06077637 -197.46229004 245.44186523 -196.8371582 244.80419922 C-194.37824249 242.38939695 -191.78705606 240.15320915 -189.15234375 237.93359375 C-185.32041767 234.49111932 -181.75498084 230.77333598 -178.13256836 227.11303711 C-174.60521622 223.56297365 -171.01118184 220.1991019 -167.1875 216.96875 C-164.00179249 214.10161324 -161.01415242 211.04568121 -158 208 C-153.85491669 203.81155808 -149.69083641 199.77329283 -145.1875 195.96875 C-142.00179249 193.10161324 -139.01415242 190.04568121 -136 187 C-131.85491669 182.81155808 -127.69083641 178.77329283 -123.1875 174.96875 C-119.34703363 171.51233027 -115.76845378 167.78697405 -112.13500977 164.11547852 C-108.58542182 160.54301767 -104.96842121 157.15395599 -101.12109375 153.90234375 C-98.12860779 151.21847513 -95.32566741 148.35765911 -92.5 145.5 C-89.10993619 142.07155449 -85.74806043 138.67739301 -82.0625 135.5625 C-78.15730021 132.25427342 -74.59719074 128.63486259 -71 125 C-66.8549191 120.81155484 -62.69083638 116.7732928 -58.1875 112.96875 C-55.00179249 110.10161324 -52.01415242 107.04568121 -49 104 C-44.85491669 99.81155808 -40.69083641 95.77329283 -36.1875 91.96875 C-33.00177864 89.10160077 -30.01434106 86.04551438 -27 83 C-22.16370948 78.11833131 -17.28153704 73.40343308 -12 69 C-11.13375 68.195625 -10.2675 67.39125 -9.375 66.5625 C-7 65 -7 65 -4.1875 64.3125 C0.75984697 65.37957484 3.42805915 68.55585668 7 72 C8.55989636 73.37795305 10.12253701 74.75280392 11.6875 76.125 C16.40434783 80.36943626 20.86575127 84.8344502 25.32519531 89.34448242 C28.11418572 92.15362925 30.912712 94.87906047 33.9375 97.4375 C37.84269979 100.74572658 41.40280926 104.36513741 45 108 C50.34465194 113.41494868 50.34465194 113.41494868 56 118.5 C60.55937735 122.35188776 64.67246864 126.64812208 68.8671875 130.88671875 C71.82940843 133.86800977 74.78707598 136.78563316 78 139.5 C82.55858949 143.35122216 86.67102171 147.64663131 90.86499023 151.88452148 C94.41457818 155.45698233 98.03157879 158.84604401 101.87890625 162.09765625 C105.47814366 165.32570159 108.82668211 168.8077371 112.22509766 172.24462891 C115.0475639 175.086724 117.87583732 177.84990122 120.9375 180.4375 C124.84269979 183.74572658 128.40280926 187.36513741 132 191 C137.34465194 196.41494868 137.34465194 196.41494868 143 201.5 C147.55937735 205.35188776 151.67246864 209.64812208 155.8671875 213.88671875 C158.82940843 216.86800977 161.78707598 219.78563316 165 222.5 C169.55858949 226.35122216 173.67102171 230.64663131 177.86499023 234.88452148 C181.40469677 238.44703725 185.00999155 241.82887142 188.84765625 245.0703125 C194.12440264 249.80118857 199.02459387 254.95633372 204 260 C209.42742303 257.67221134 212.99804761 253.21010763 217 249 C217.70640625 248.26394531 218.4128125 247.52789062 219.140625 246.76953125 C220.09195313 245.73892578 220.09195313 245.73892578 221.0625 244.6875 C221.63097656 244.07261719 222.19945312 243.45773438 222.78515625 242.82421875 C224.36952589 240.81040309 224.36952589 240.81040309 224 237 C222.53646508 235.01178244 222.53646508 235.01178244 220.5 233.1875 C219.76007813 232.48238281 219.02015625 231.77726563 218.2578125 231.05078125 C216.32173159 229.29223025 214.36273667 227.57447183 212.375 225.875 C208.37852362 222.4471922 204.70067871 218.739664 201 215 C195.65535348 209.58504466 195.65535348 209.58504466 190 204.5 C185.44062265 200.64811224 181.32753136 196.35187792 177.1328125 192.11328125 C174.17059157 189.13199023 171.21292402 186.21436684 168 183.5 C163.44062265 179.64811224 159.32753136 175.35187792 155.1328125 171.11328125 C152.17059157 168.13199023 149.21292402 165.21436684 146 162.5 C141.44062265 158.64811224 137.32753136 154.35187792 133.1328125 150.11328125 C130.17059157 147.13199023 127.21292402 144.21436684 124 141.5 C119.44062265 137.64811224 115.32753136 133.35187792 111.1328125 129.11328125 C108.17059157 126.13199023 105.21292402 123.21436684 102 120.5 C97.44062265 116.64811224 93.32753136 112.35187792 89.1328125 108.11328125 C86.17059157 105.13199023 83.21292402 102.21436684 80 99.5 C75.44141051 95.64877784 71.32897829 91.35336869 67.13500977 87.11547852 C63.58542182 83.54301767 59.96842121 80.15395599 56.12109375 76.90234375 C52.52185634 73.67429841 49.17331789 70.1922629 45.77490234 66.75537109 C42.9524361 63.913276 40.12416268 61.15009878 37.0625 58.5625 C33.15730021 55.25427342 29.59719074 51.63486259 26 48 C21.86418447 43.82091714 17.71362489 39.78609537 13.21484375 35.99609375 C9.19821662 32.37617054 5.44365392 28.48031231 1.65820312 24.62109375 C1.07103516 24.02554687 0.48386719 23.43 -0.12109375 22.81640625 C-0.6514624 22.27443604 -1.18183105 21.73246582 -1.72827148 21.17407227 C-5.400355 17.78396867 -12.6589961 27.63240964 -15.36328125 30.3359375 Z M-7.5390625 87.37890625 C-8.57190148 88.43602352 -9.60028109 89.49750966 -10.625 90.5625 C-13.94786198 93.95620772 -17.23705345 97.31437975 -20.875 100.375 C-24.79832332 103.70736249 -28.38208667 107.34415311 -32 111 C-36.1450785 115.1884484 -40.30916365 119.22670722 -44.8125 123.03125 C-47.99820751 125.89838676 -50.98584758 128.95431879 -54 132 C-58.14508331 136.18844192 -62.30916359 140.22670717 -66.8125 144.03125 C-70.65296637 147.48766973 -74.23154622 151.21302595 -77.86499023 154.88452148 C-81.41457818 158.45698233 -85.03157879 161.84604401 -88.87890625 165.09765625 C-91.87139221 167.78152487 -94.67433259 170.64234089 -97.5 173.5 C-100.89006381 176.92844551 -104.25193957 180.32260699 -107.9375 183.4375 C-111.84269979 186.74572658 -115.40280926 190.36513741 -119 194 C-123.1450809 198.18844516 -127.30916362 202.2267072 -131.8125 206.03125 C-134.99820751 208.89838676 -137.98584758 211.95431879 -141 215 C-145.14508331 219.18844192 -149.30916359 223.22670717 -153.8125 227.03125 C-157.64375238 230.47937715 -161.21416605 234.19519556 -164.83862305 237.8581543 C-169.06324936 242.11031382 -173.40577387 246.14720518 -178 250 C-179.94939281 251.94939281 -179.12301685 254.92042902 -179.12908131 257.51532131 C-179.12616847 258.46179986 -179.12325563 259.4082784 -179.12025452 260.38343811 C-179.12110894 261.38067931 -179.12196337 262.37792051 -179.12284368 263.40538114 C-179.1245015 266.77425954 -179.1189722 270.14308902 -179.11352539 273.51196289 C-179.11324356 275.9160207 -179.11340118 278.32007859 -179.1139679 280.72413635 C-179.11419621 285.91394086 -179.11134488 291.10373415 -179.10573006 296.29353523 C-179.09761714 303.79719789 -179.09500005 311.30085445 -179.09374207 318.80452102 C-179.09155122 330.97751289 -179.08489024 343.15049808 -179.07543945 355.32348633 C-179.06626618 367.15128547 -179.05918494 378.97908279 -179.05493164 390.80688477 C-179.05466892 391.53544896 -179.05440619 392.26401316 -179.05413551 393.01465506 C-179.05283051 396.6694978 -179.05156679 400.32434055 -179.05032361 403.97918332 C-179.03994997 434.31946033 -179.02225664 464.65972924 -179 495 C-175.80062711 495.01944474 -172.60126965 495.03113989 -169.40185547 495.04150391 C-168.50182297 495.04706802 -167.60179047 495.05263214 -166.67448425 495.05836487 C-160.02636203 495.07450247 -153.66711917 494.60744474 -147.125 493.375 C-146.12654053 493.19533691 -145.12808105 493.01567383 -144.09936523 492.83056641 C-97.13225195 484.02168594 -54.18827309 460.84771296 -18 430 C-19.54572776 426.18371168 -21.88771245 424.02974257 -24.9375 421.3125 C-25.67166138 420.65568237 -25.67166138 420.65568237 -26.4206543 419.9855957 C-29.64448119 417.12519141 -32.95353677 414.38862474 -36.3125 411.6875 C-41.36916714 407.61186956 -46.08348303 403.2463704 -50.80786133 398.79760742 C-54.27044112 395.55466358 -57.79277721 392.46577823 -61.5 389.5 C-66.5043432 385.49652544 -71.14699302 381.18663292 -75.80859375 376.796875 C-79.27096211 373.55421929 -82.79305103 370.46555917 -86.5 367.5 C-91.54913095 363.45920142 -96.26781751 359.12844024 -100.96679688 354.69140625 C-103.8157791 352.00531799 -106.69264909 349.40014241 -109.69921875 346.890625 C-120.26790736 337.89533999 -127.25170847 322.62511502 -129 309 C-130.52555586 287.60500928 -127.32243726 267.74379001 -113.01953125 251.04003906 C-100.43749192 237.1451679 -83.79010097 228.95324451 -65.125 227.125 C-45.0252965 226.22568441 -26.201522 232.05670822 -11.12109375 245.58203125 C-9.01692873 247.67302466 -6.97627366 249.78845567 -5 252 C-2.04799613 250.68870214 -0.24132462 249.35697382 1.875 246.9375 C13.94705314 234.60804701 30.53119826 228.00340503 47.61767578 227.70703125 C68.23944068 227.58570891 85.76595831 232.29078445 100.99121094 246.7956543 C114.7961275 260.60293958 121.21561786 278.05375128 121.4375 297.3125 C121.32524761 316.47229136 115.15351865 332.80622064 102 347 C96.8233431 352.08998533 91.33725987 356.75945822 85.6875 361.3125 C80.63083286 365.38813044 75.91651697 369.7536296 71.19213867 374.20239258 C66.89891399 378.22329242 62.43762791 381.94989767 57.84375 385.625 C54.44364928 388.46464456 51.22413555 391.46388099 48 394.5 C43.1151258 399.10001113 38.10529697 403.41576242 32.86328125 407.609375 C28.74373169 411.04888978 24.84485702 414.71115251 20.9453125 418.39648438 C17.40003847 421.74022891 13.77451766 424.91643035 10 428 C11.33032381 431.05288068 12.63840914 432.79918325 15.28125 434.8125 C15.94898438 435.32449951 16.61671875 435.83649902 17.3046875 436.36401367 C18.02914062 436.90388916 18.75359375 437.44376465 19.5 438 C20.25539063 438.56887939 21.01078125 439.13775879 21.7890625 439.72387695 C29.97014767 445.82172168 38.38719161 451.53170278 47 457 C48.01151123 457.64316162 48.01151123 457.64316162 49.04345703 458.29931641 C75.93198735 475.19446306 104.97705383 486.55485244 136 493 C136.70060547 493.14695312 137.40121094 493.29390625 138.12304688 493.4453125 C145.72374707 494.97031958 153.20427043 495.08182842 160.921875 495.0390625 C161.89302246 495.03624268 162.86416992 495.03342285 163.86474609 495.03051758 C166.24318954 495.02320379 168.62158173 495.01295695 171 495 C171.18255642 464.05210562 171.32410561 433.10435379 171.40852264 402.15604869 C171.41852812 398.50116699 171.42888271 394.84628636 171.43945312 391.19140625 C171.44260085 390.09998897 171.44260085 390.09998897 171.44581217 388.98652285 C171.48060949 377.20975005 171.54367841 365.43329011 171.61722237 353.65670282 C171.69207221 341.57007107 171.73647806 329.48360302 171.75270796 317.39674902 C171.7626939 310.60875235 171.78668162 303.82140768 171.84584045 297.03364563 C171.90014577 290.6444375 171.91689126 284.25623066 171.90486145 277.86681366 C171.90706214 275.52223519 171.92297348 273.17762321 171.9536438 270.83324432 C171.99350241 267.62934211 171.98386635 264.42921069 171.96203613 261.22521973 C171.99699023 259.83608675 171.99699023 259.83608675 172.03265047 258.41889048 C171.93410375 253.06183057 170.97302699 250.41464114 167.16643524 246.55623627 C165.80081856 245.34417563 164.41254862 244.15702476 163 243 C161.79115126 241.95893151 160.58273391 240.91736159 159.375 239.875 C158.72273438 239.31554687 158.07046875 238.75609375 157.3984375 238.1796875 C154.15261014 235.22989651 151.08448147 232.11697535 148 229 C142.65535348 223.58504466 142.65535348 223.58504466 137 218.5 C132.44062265 214.64811224 128.32753136 210.35187792 124.1328125 206.11328125 C121.17059157 203.13199023 118.21292402 200.21436684 115 197.5 C110.44062265 193.64811224 106.32753136 189.35187792 102.1328125 185.11328125 C99.17059157 182.13199023 96.21292402 179.21436684 93 176.5 C88.44062265 172.64811224 84.32753136 168.35187792 80.1328125 164.11328125 C77.17059157 161.13199023 74.21292402 158.21436684 71 155.5 C66.44062265 151.64811224 62.32753136 147.35187792 58.1328125 143.11328125 C55.17059157 140.13199023 52.21292402 137.21436684 49 134.5 C44.44141051 130.64877784 40.32897829 126.35336869 36.13500977 122.11547852 C32.58542182 118.54301767 28.96842121 115.15395599 25.12109375 111.90234375 C21.528778 108.68050623 18.18633711 105.20565092 14.79467773 101.77514648 C11.20768361 98.16297679 7.53683106 94.72314189 3.6484375 91.43359375 C2.05178429 90.04503515 0.58845118 88.5893956 -0.875 87.0625 C-3.99381092 84.03541881 -4.3665259 84.40648349 -7.5390625 87.37890625 Z M-97.625 259.375 C-98.40875 260.24125 -99.1925 261.1075 -100 262 C-100.83144531 262.91652344 -100.83144531 262.91652344 -101.6796875 263.8515625 C-111.75191257 275.73938179 -113.90726635 289.51220794 -113.22216797 304.53320312 C-111.86459372 319.60675275 -102.87543681 331.17195679 -92 341 C-89.36538889 343.19483058 -86.69715529 345.34227577 -84.01953125 347.484375 C-80.55668978 350.3693296 -77.27871964 353.40964087 -74 356.5 C-69.94143667 360.32227523 -65.85700774 364.0143938 -61.5 367.5 C-56.4956568 371.50347456 -51.85300698 375.81336708 -47.19140625 380.203125 C-43.72903789 383.44578071 -40.20694897 386.53444083 -36.5 389.5 C-32.14283874 392.98572901 -28.05981431 396.67890145 -24 400.5 C-14.2229497 411.06181673 -14.2229497 411.06181673 -2 416 C0.30551812 414.29760066 2.38028453 412.59794697 4.5 410.6875 C5.11657471 410.14569092 5.73314941 409.60388184 6.3684082 409.0456543 C10.86525951 405.07546645 15.2786931 401.01353497 19.67431641 396.93188477 C22.81368375 394.03284429 26.0411688 391.29693187 29.375 388.625 C34.41416406 384.57333783 39.10465771 380.22645384 43.80810547 375.79736328 C48.101263 371.77656357 52.56246351 368.05002919 57.15625 364.375 C61.18728284 361.00842313 64.9792138 357.40483496 68.79980469 353.8034668 C72.34049914 350.48491641 75.9540299 347.34176992 79.75 344.3125 C88.85733222 336.94883964 96.20424405 329.82042436 101 319 C101.4125 318.11054688 101.825 317.22109375 102.25 316.3046875 C107.39535574 303.47702978 106.40614847 289.04638705 101.55859375 276.31640625 C98.22905898 269.23175707 93.82319146 263.24087231 88 258 C87.52433594 257.53207031 87.04867187 257.06414062 86.55859375 256.58203125 C79.51937355 249.98382244 70.46504428 245.67928205 61 244 C60.2678125 243.86722656 59.535625 243.73445312 58.78125 243.59765625 C44.57346601 241.54490824 31.0359541 245.67910333 19.3125 253.625 C11.72531086 259.41406917 6.06546189 266.97968534 1 275 C-0.88059033 276.88059033 -3.49890038 276.12361218 -5.9921875 276.1328125 C-8 276 -8 276 -11 275 C-11.68804051 273.00725197 -12.35131279 271.00590362 -13 269 C-21.40319817 256.18281422 -33.67751055 247.56659468 -48.6015625 244.18359375 C-67.92854071 241.00244516 -83.35874215 246.46743337 -97.625 259.375 Z " fill="#000000" transform="translate(260,0)"/>
</svg>
